<svg id="Capa_1" enable-background="new 0 0 512 512" height="512" viewBox="0 0 512 512" width="512" xmlns="http://www.w3.org/2000/svg"><g fill="#ffda8f"><path d="m45.888 47.062h46.485v46.485h-46.485z" transform="matrix(.707 .707 -.707 .707 69.961 -28.291)"/><path d="m419.453 420.627h46.485v46.485h-46.485z" transform="matrix(.707 .707 -.707 .707 443.526 -183.027)"/><path d="m217.54 217.148h76.921v76.921h-76.921z" transform="matrix(.707 .707 -.707 .707 255.723 -106.153)"/></g><circle cx="466" cy="256" r="10"/><circle cx="346" cy="166" r="10"/><circle cx="346" cy="346" r="10"/><circle cx="166" cy="166" r="10"/><circle cx="166" cy="346" r="10"/><circle cx="46" cy="256" r="10"/><path d="m10 80c27.57 0 50 22.43 50 50 0 5.522 4.478 10 10 10s10-4.478 10-10c0-27.57 22.43-50 50-50 5.522 0 10-4.478 10-10s-4.478-10-10-10c-27.57 0-50-22.43-50-50 0-5.522-4.478-10-10-10s-10 4.478-10 10c0 27.57-22.43 50-50 50-5.522 0-10 4.478-10 10s4.478 10 10 10zm60-33.988c5.915 9.818 14.17 18.073 23.988 23.988-9.818 5.915-18.073 14.17-23.988 23.988-5.915-9.818-14.17-18.073-23.988-23.988 9.818-5.915 18.073-14.17 23.988-23.988z"/><path d="m502 432c-27.57 0-50-22.43-50-50 0-5.522-4.478-10-10-10s-10 4.478-10 10c0 27.57-22.43 50-50 50-5.522 0-10 4.478-10 10s4.478 10 10 10c27.57 0 50 22.43 50 50 0 5.522 4.478 10 10 10s10-4.478 10-10c0-27.57 22.43-50 50-50 5.522 0 10-4.478 10-10s-4.478-10-10-10zm-60 33.988c-5.915-9.819-14.17-18.073-23.988-23.988 9.819-5.915 18.073-14.17 23.988-23.988 5.915 9.819 14.17 18.073 23.988 23.988-9.818 5.915-18.073 14.17-23.988 23.988z"/><path d="m346 246c-44.112 0-80-35.888-80-80 0-5.522-4.478-10-10-10s-10 4.478-10 10c0 44.112-35.888 80-80 80-5.522 0-10 4.478-10 10s4.478 10 10 10c44.112 0 80 35.888 80 80 0 5.522 4.478 10 10 10s10-4.478 10-10c0-44.112 35.888-80 80-80 5.522 0 10-4.478 10-10s-4.478-10-10-10zm-90 56.435c-9.817-20.199-26.236-36.618-46.435-46.435 20.199-9.817 36.618-26.236 46.435-46.435 9.817 20.199 26.236 36.618 46.435 46.435-20.199 9.817-36.618 26.236-46.435 46.435z"/><path d="m106 446c5.522 0 10-4.478 10-10v-20h20c5.522 0 10-4.478 10-10s-4.478-10-10-10h-20v-20c0-5.522-4.478-10-10-10s-10 4.478-10 10v20h-20c-5.522 0-10 4.478-10 10s4.478 10 10 10h20v20c0 5.522 4.478 10 10 10z"/><path d="m406 146c5.522 0 10-4.478 10-10v-20h20c5.522 0 10-4.478 10-10s-4.478-10-10-10h-20v-20c0-5.522-4.478-10-10-10s-10 4.478-10 10v20h-20c-5.522 0-10 4.478-10 10s4.478 10 10 10h20v20c0 5.522 4.478 10 10 10z"/><path d="m256 0c-5.522 0-10 4.478-10 10v20h-20c-5.522 0-10 4.478-10 10s4.478 10 10 10h20v20c0 5.522 4.478 10 10 10s10-4.478 10-10v-20h20c5.522 0 10-4.478 10-10s-4.478-10-10-10h-20v-20c0-5.522-4.478-10-10-10z"/><path d="m256 512c5.522 0 10-4.478 10-10v-20h20c5.522 0 10-4.478 10-10s-4.478-10-10-10h-20v-20c0-5.522-4.478-10-10-10s-10 4.478-10 10v20h-20c-5.522 0-10 4.478-10 10s4.478 10 10 10h20v20c0 5.522 4.478 10 10 10z"/></svg>